<svg width="351.123" height="75.978" viewBox="0 0 351.123 75.978" xmlns="http://www.w3.org/2000/svg"><g id="svgGroup" stroke-linecap="round" fill-rule="evenodd" font-size="9pt" stroke="#000000" stroke-width="0.25mm" fill="#000000" style="stroke:#000000;stroke-width:0.25mm;fill:#000000"><path d="M 41.797 75 L 20.41 44.287 L 12.354 52.832 L 12.354 75 L 0 75 L 0 3.906 L 12.354 3.906 L 12.354 37.256 L 19.189 28.809 L 39.99 3.906 L 54.932 3.906 L 28.516 35.4 L 56.445 75 L 41.797 75 Z M 117.334 22.168 L 128.516 22.168 L 128.857 28.271 A 18.764 18.764 0 0 1 142.485 21.254 A 24.301 24.301 0 0 1 144.238 21.191 A 20.551 20.551 0 0 1 151.282 22.3 Q 160.813 25.768 161.035 40.088 L 161.035 75 L 149.17 75 L 149.17 40.771 A 18.489 18.489 0 0 0 148.983 38.049 Q 148.533 35.034 146.997 33.325 A 6.501 6.501 0 0 0 144.408 31.611 Q 142.551 30.908 139.893 30.908 A 12.422 12.422 0 0 0 134.934 31.86 Q 132.038 33.106 130.063 35.985 A 15.784 15.784 0 0 0 129.199 37.402 L 129.199 75 L 117.334 75 L 117.334 22.168 Z M 252.588 22.168 L 263.77 22.168 L 264.111 28.271 A 18.764 18.764 0 0 1 277.739 21.254 A 24.301 24.301 0 0 1 279.492 21.191 A 20.551 20.551 0 0 1 286.535 22.3 Q 296.067 25.768 296.289 40.088 L 296.289 75 L 284.424 75 L 284.424 40.771 A 18.489 18.489 0 0 0 284.237 38.049 Q 283.787 35.034 282.251 33.325 A 6.501 6.501 0 0 0 279.662 31.611 Q 277.805 30.908 275.146 30.908 A 12.422 12.422 0 0 0 270.188 31.86 Q 267.292 33.106 265.317 35.985 A 15.784 15.784 0 0 0 264.453 37.402 L 264.453 75 L 252.588 75 L 252.588 22.168 Z M 317.48 22.168 L 327.344 39.551 L 337.402 22.168 L 350.586 22.168 L 334.424 48.193 L 351.123 75 L 338.037 75 L 327.49 56.934 L 316.992 75 L 303.809 75 L 320.508 48.193 L 304.395 22.168 L 317.48 22.168 Z M 242.334 75 L 230.225 75 Q 229.58 73.752 229.069 71.209 A 40.514 40.514 0 0 1 228.857 70.068 A 18.423 18.423 0 0 1 215.5 75.971 A 22.455 22.455 0 0 1 214.99 75.977 A 22.778 22.778 0 0 1 209.113 75.256 A 16.956 16.956 0 0 1 202.002 71.436 A 15.096 15.096 0 0 1 198.087 66.027 A 14.978 14.978 0 0 1 196.973 60.205 A 18.076 18.076 0 0 1 197.819 54.532 A 14.345 14.345 0 0 1 203.247 47.241 Q 209.521 42.725 221.191 42.725 L 228.467 42.725 L 228.467 39.258 Q 228.467 35.156 226.172 32.69 A 7.165 7.165 0 0 0 223.114 30.785 Q 221.952 30.4 220.533 30.279 A 15.907 15.907 0 0 0 219.189 30.225 A 13.271 13.271 0 0 0 216.26 30.531 A 9.232 9.232 0 0 0 212.549 32.251 A 7.054 7.054 0 0 0 210.849 34.117 A 6.173 6.173 0 0 0 209.961 37.402 L 198.096 37.402 A 12.876 12.876 0 0 1 200.282 30.257 A 16.331 16.331 0 0 1 200.977 29.272 A 18.192 18.192 0 0 1 206.327 24.597 A 22.974 22.974 0 0 1 208.813 23.34 A 26.106 26.106 0 0 1 216.531 21.361 A 32.142 32.142 0 0 1 219.873 21.191 A 29.922 29.922 0 0 1 226.025 21.787 Q 229.848 22.59 232.798 24.477 A 17.484 17.484 0 0 1 234.668 25.854 A 15.565 15.565 0 0 1 239.968 35.213 A 22.671 22.671 0 0 1 240.332 38.965 L 240.332 62.793 A 41.459 41.459 0 0 0 240.548 67.161 Q 240.779 69.336 241.257 71.154 A 17.54 17.54 0 0 0 242.334 74.17 L 242.334 75 Z M 185.742 0 L 185.742 75 L 173.877 75 L 173.877 0 L 185.742 0 Z M 58.35 48.682 L 58.35 48.096 A 33.799 33.799 0 0 1 59.323 39.848 A 28.661 28.661 0 0 1 61.426 34.106 A 23.459 23.459 0 0 1 66.316 27.381 A 21.699 21.699 0 0 1 70.068 24.536 A 23.484 23.484 0 0 1 79.994 21.329 A 29.207 29.207 0 0 1 82.861 21.191 A 27.079 27.079 0 0 1 90.885 22.328 A 21.726 21.726 0 0 1 100.22 28.076 A 24.918 24.918 0 0 1 106.563 39.979 A 35.053 35.053 0 0 1 107.422 46.338 L 107.471 49.121 A 34.842 34.842 0 0 1 106.623 56.953 A 28.508 28.508 0 0 1 104.468 63.086 Q 101.465 69.238 95.874 72.607 A 23.518 23.518 0 0 1 86.135 75.81 A 29.532 29.532 0 0 1 82.959 75.977 A 27.135 27.135 0 0 1 74.758 74.794 A 21.601 21.601 0 0 1 65.063 68.53 A 25.308 25.308 0 0 1 59.219 56.966 A 37.314 37.314 0 0 1 58.35 48.682 Z M 70.215 49.121 A 31.886 31.886 0 0 0 70.578 54.091 Q 70.994 56.725 71.888 58.856 A 14.884 14.884 0 0 0 73.584 61.89 A 10.725 10.725 0 0 0 81.322 66.413 A 14.306 14.306 0 0 0 82.959 66.504 A 12.307 12.307 0 0 0 87.245 65.789 Q 90.271 64.673 92.31 61.816 A 15.512 15.512 0 0 0 94.412 57.491 Q 95.072 55.424 95.381 52.902 A 39.589 39.589 0 0 0 95.654 48.096 A 30.182 30.182 0 0 0 95.252 43.01 Q 94.78 40.253 93.754 38.03 A 15.16 15.16 0 0 0 92.212 35.4 A 11.396 11.396 0 0 0 88.335 31.978 Q 86.119 30.812 83.337 30.721 A 14.525 14.525 0 0 0 82.861 30.713 Q 77.051 30.713 73.633 35.327 A 14.897 14.897 0 0 0 71.5 39.579 Q 70.215 43.491 70.215 49.121 Z M 228.467 60.156 L 228.467 50.195 L 222.07 50.195 A 30.591 30.591 0 0 0 218.621 50.377 Q 214.769 50.815 212.425 52.313 A 8.876 8.876 0 0 0 212.158 52.49 A 7.285 7.285 0 0 0 208.919 57.719 A 9.599 9.599 0 0 0 208.838 58.984 A 8.304 8.304 0 0 0 209.184 61.442 A 6.506 6.506 0 0 0 211.108 64.429 A 7.71 7.71 0 0 0 214.522 66.164 Q 215.668 66.437 217.008 66.454 A 14.113 14.113 0 0 0 217.188 66.455 A 13.497 13.497 0 0 0 223.804 64.746 Q 226.904 63.037 228.467 60.156 Z" vector-effect="non-scaling-stroke"/></g></svg>